<svg width="43" height="43" viewBox="0 0 43 43" fill="none" xmlns="http://www.w3.org/2000/svg">
<path d="M32.321 24.2771C31.5685 25.0117 31.1385 26.0688 31.246 27.1975C31.4073 29.1325 33.181 30.5479 35.116 30.5479H38.5202V32.68C38.5202 36.3888 35.4923 39.4167 31.7835 39.4167H11.2152C7.50643 39.4167 4.47852 36.3888 4.47852 32.68V20.6221C4.47852 16.9134 7.50643 13.8854 11.2152 13.8854H31.7835C35.4923 13.8854 38.5202 16.9134 38.5202 20.6221V23.2021H34.901C33.8977 23.2021 32.9839 23.5962 32.321 24.2771Z" stroke="#272B41" stroke-width="2" stroke-linecap="round" stroke-linejoin="round"/>
<path opacity="0.4" d="M4.47852 22.2346V14.0468C4.47852 11.9147 5.78643 10.0154 7.77518 9.26293L22.001 3.88793C24.2227 3.04585 26.6056 4.69424 26.6056 7.07715V13.8855" stroke="#272B41" stroke-width="2" stroke-linecap="round" stroke-linejoin="round"/>
<path d="M40.4201 25.0295V28.7205C40.4201 29.7059 39.6318 30.512 38.6285 30.5479H35.1168C33.1818 30.5479 31.4081 29.1325 31.2468 27.1975C31.1393 26.0687 31.5693 25.0116 32.3218 24.277C32.9847 23.5962 33.8985 23.2021 34.9018 23.2021H38.6285C39.6318 23.2379 40.4201 24.0441 40.4201 25.0295Z" stroke="#272B41" stroke-width="2" stroke-linecap="round" stroke-linejoin="round"/>
<path opacity="0.4" d="M12.541 21.5H25.0827" stroke="#272B41" stroke-width="2" stroke-linecap="round" stroke-linejoin="round"/>
</svg>
