<svg width="21" height="21" viewBox="0 0 21 21" fill="none" xmlns="http://www.w3.org/2000/svg">
<path d="M20.9123 10.9005C20.9246 10.1902 20.8506 9.47988 20.6941 8.78998H10.9141V12.6232H16.6562C16.438 13.9826 15.6683 15.191 14.5281 15.9748L14.5075 16.1013L17.5988 18.4772L17.8128 18.4976C19.7762 16.6973 20.9123 14.0479 20.9123 10.9005Z" fill="#4285F4"/>
<path d="M10.9139 21C13.7253 21 16.088 20.0815 17.8127 18.4976L14.5279 15.9707C13.4619 16.681 12.1982 17.0402 10.918 17.0035C8.21782 16.9871 5.83043 15.2563 4.99072 12.7089L4.86724 12.7212L1.65249 15.1869L1.61133 15.3012C3.37306 18.7997 6.97473 21.0041 10.9139 21Z" fill="#34A853"/>
<path d="M4.98665 12.713C4.76026 12.0557 4.64089 11.3658 4.64089 10.6678C4.64501 9.97378 4.76026 9.28387 4.97842 8.62255L4.97431 8.48783L1.71839 5.98132L1.61137 6.03031C0.129542 8.94913 0.129542 12.3864 1.61137 15.3052L4.98665 12.713Z" fill="#FBBC05"/>
<path d="M10.9144 4.33621C12.4085 4.31172 13.8492 4.86282 14.94 5.87523L17.879 3.02989C15.9937 1.27452 13.4952 0.315184 10.9102 0.34376C6.97104 0.34376 3.36936 2.5441 1.60352 6.03852L4.97056 8.63075C5.8185 6.08342 8.21001 4.35254 10.9144 4.33621Z" fill="#EB4335"/>
</svg>
