<svg width="40" height="40" viewBox="0 0 40 40" fill="none" xmlns="http://www.w3.org/2000/svg">
<path d="M9.13332 30.8166V25.95C9.13332 24.3333 10.4 22.8833 12.2 22.8833C13.8166 22.8833 15.2666 24.15 15.2666 25.95V30.6333C15.2666 33.8833 12.5666 36.5833 9.31663 36.5833C6.06663 36.5833 3.36662 33.8667 3.36662 30.6333V20.3666C3.18328 10.9999 10.5833 3.41663 19.95 3.41663C29.3166 3.41663 36.6999 11 36.6999 20.1833V30.45C36.6999 33.7 34 36.4 30.75 36.4C27.5 36.4 24.8 33.7 24.8 30.45V25.7667C24.8 24.15 26.0666 22.7 27.8666 22.7C29.4833 22.7 30.9333 23.9667 30.9333 25.7667V30.8166" stroke="#272B41" stroke-width="2" stroke-linecap="round" stroke-linejoin="round"/>
<path opacity="0.4" d="M25.883 15.2H24.533C24.1663 15.2 23.8163 15.4167 23.6496 15.7333L22.3996 18.2333C22.2163 18.6 21.6996 18.6 21.5163 18.2333L18.4496 12.1167C18.2663 11.7667 17.7663 11.75 17.5829 12.1L16.1829 14.6833C16.0163 15 15.683 15.2 15.3163 15.2H14.0996" stroke="#272B41" stroke-width="2" stroke-linecap="round" stroke-linejoin="round"/>
</svg>
