<svg width="40" height="40" viewBox="0 0 40 40" fill="none" xmlns="http://www.w3.org/2000/svg">
<path opacity="0.4" d="M36.6667 25C36.6667 31.45 31.45 36.6667 25 36.6667L26.75 33.75" stroke="#272B41" stroke-width="2" stroke-linecap="round" stroke-linejoin="round"/>
<path opacity="0.4" d="M3.33398 15C3.33398 8.54998 8.55065 3.33331 15.0007 3.33331L13.2506 6.24998" stroke="#272B41" stroke-width="2" stroke-linecap="round" stroke-linejoin="round"/>
<path d="M22.834 7.41669L29.4673 11.25L36.034 7.43337" stroke="#272B41" stroke-width="2" stroke-linecap="round" stroke-linejoin="round"/>
<path d="M29.4668 18.0334V11.2333" stroke="#272B41" stroke-width="2" stroke-linecap="round" stroke-linejoin="round"/>
<path d="M27.9 3.68331L23.9 5.89991C23 6.39991 22.25 7.66656 22.25 8.69989V12.9333C22.25 13.9666 22.9833 15.2333 23.9 15.7333L27.9 17.95C28.75 18.4333 30.15 18.4333 31.0167 17.95L35.0166 15.7333C35.9166 15.2333 36.6667 13.9666 36.6667 12.9333V8.69989C36.6667 7.66656 35.9333 6.39991 35.0166 5.89991L31.0167 3.68331C30.1667 3.21665 28.7667 3.21665 27.9 3.68331Z" stroke="#272B41" stroke-width="2" stroke-linecap="round" stroke-linejoin="round"/>
<path d="M3.91797 25.7501L10.5346 29.5834L17.118 25.7667" stroke="#272B41" stroke-width="2" stroke-linecap="round" stroke-linejoin="round"/>
<path d="M10.5352 36.3667V29.5667" stroke="#272B41" stroke-width="2" stroke-linecap="round" stroke-linejoin="round"/>
<path d="M8.98398 22.0167L4.98399 24.2333C4.08399 24.7333 3.33398 25.9999 3.33398 27.0333V31.2667C3.33398 32.3 4.06733 33.5667 4.98399 34.0667L8.98398 36.2833C9.83398 36.7667 11.234 36.7667 12.1006 36.2833L16.1007 34.0667C17.0007 33.5667 17.7506 32.3 17.7506 31.2667V27.0333C17.7506 25.9999 17.0173 24.7333 16.1007 24.2333L12.1006 22.0167C11.234 21.55 9.83398 21.55 8.98398 22.0167Z" stroke="#272B41" stroke-width="2" stroke-linecap="round" stroke-linejoin="round"/>
</svg>
