<svg width="24" height="25" viewBox="0 0 24 25" fill="none" xmlns="http://www.w3.org/2000/svg">
<path d="M19.5 13C19.5 11.62 20.62 10.5 22 10.5V9.5C22 5.5 21 4.5 17 4.5H7C3 4.5 2 5.5 2 9.5V10C3.38 10 4.5 11.12 4.5 12.5C4.5 13.88 3.38 15 2 15V15.5C2 19.5 3 20.5 7 20.5H17C21 20.5 22 19.5 22 15.5C20.62 15.5 19.5 14.38 19.5 13Z" stroke="#272B41" stroke-opacity="0.5" stroke-width="1.5" stroke-linecap="round" stroke-linejoin="round"/>
<path d="M9 15.25L15 9.25" stroke="#272B41" stroke-opacity="0.5" stroke-width="1.5" stroke-linecap="round" stroke-linejoin="round"/>
<path d="M14.9945 15.25H15.0035" stroke="#272B41" stroke-opacity="0.5" stroke-width="2" stroke-linecap="round" stroke-linejoin="round"/>
<path d="M8.99451 9.75H9.00349" stroke="#272B41" stroke-opacity="0.5" stroke-width="2" stroke-linecap="round" stroke-linejoin="round"/>
</svg>
