<svg width="43" height="43" viewBox="0 0 43 43" fill="none" xmlns="http://www.w3.org/2000/svg">
<path opacity="0.4" d="M21.5 25.0833H23.2916C25.2625 25.0833 26.875 23.4708 26.875 21.5V3.58331H10.75C8.06247 3.58331 5.7154 5.07037 4.49707 7.25621" stroke="#272B41" stroke-width="2" stroke-linecap="round" stroke-linejoin="round"/>
<path d="M3.58301 30.4583C3.58301 33.4325 5.98384 35.8333 8.95801 35.8333H10.7497C10.7497 33.8625 12.3622 32.25 14.333 32.25C16.3038 32.25 17.9163 33.8625 17.9163 35.8333H25.083C25.083 33.8625 26.6955 32.25 28.6663 32.25C30.6372 32.25 32.2497 33.8625 32.2497 35.8333H34.0413C37.0155 35.8333 39.4163 33.4325 39.4163 30.4583V25.0833H34.0413C33.0559 25.0833 32.2497 24.2771 32.2497 23.2916V17.9166C32.2497 16.9312 33.0559 16.125 34.0413 16.125H36.3526L33.2889 10.7679C32.6439 9.65708 31.4614 8.95831 30.1714 8.95831H26.8747V21.5C26.8747 23.4708 25.2622 25.0833 23.2913 25.0833H21.4997" stroke="#272B41" stroke-width="2" stroke-linecap="round" stroke-linejoin="round"/>
<path d="M14.3333 39.4167C16.3124 39.4167 17.9167 37.8124 17.9167 35.8333C17.9167 33.8543 16.3124 32.25 14.3333 32.25C12.3543 32.25 10.75 33.8543 10.75 35.8333C10.75 37.8124 12.3543 39.4167 14.3333 39.4167Z" stroke="#272B41" stroke-width="2" stroke-linecap="round" stroke-linejoin="round"/>
<path d="M28.6663 39.4167C30.6454 39.4167 32.2497 37.8124 32.2497 35.8333C32.2497 33.8543 30.6454 32.25 28.6663 32.25C26.6873 32.25 25.083 33.8543 25.083 35.8333C25.083 37.8124 26.6873 39.4167 28.6663 39.4167Z" stroke="#272B41" stroke-width="2" stroke-linecap="round" stroke-linejoin="round"/>
<path d="M39.4167 21.5V25.0833H34.0417C33.0563 25.0833 32.25 24.2771 32.25 23.2917V17.9167C32.25 16.9313 33.0563 16.125 34.0417 16.125H36.3529L39.4167 21.5Z" stroke="#272B41" stroke-width="2" stroke-linecap="round" stroke-linejoin="round"/>
<path d="M3.58301 14.3333H14.333" stroke="#272B41" stroke-width="2" stroke-linecap="round" stroke-linejoin="round"/>
<path d="M3.58301 19.7083H10.7497" stroke="#272B41" stroke-width="2" stroke-linecap="round" stroke-linejoin="round"/>
<path d="M3.58301 25.0833H7.16634" stroke="#272B41" stroke-width="2" stroke-linecap="round" stroke-linejoin="round"/>
</svg>
